<svg width="59" height="63" viewBox="0 0 59 63" fill="none" xmlns="http://www.w3.org/2000/svg">
<path d="M11.3016 22.3H3.91869V40.0507H11.3016V22.3ZM50.2693 55.3045C49.5297 56.2171 48.292 56.2607 47.5056 55.4024C46.7193 54.544 46.6817 53.1075 47.4213 52.1949C49.7328 49.3458 51.5309 46.0441 52.7479 42.4825C53.9619 38.9299 54.6019 35.0971 54.6019 31.1745C54.6019 27.3381 53.988 23.5836 52.8215 20.0896C51.6527 16.5922 49.9268 13.3375 47.7018 10.5081C46.9745 9.58033 47.0328 8.1447 47.8321 7.30057C48.6307 6.45733 49.8685 6.52405 50.5951 7.45178C53.1396 10.6877 55.1192 14.4254 56.4651 18.4548C57.8124 22.4886 58.5206 26.7982 58.5206 31.1745C58.5206 35.6433 57.7802 40.0427 56.3754 44.153C54.9736 48.2544 52.9119 52.0445 50.2678 55.3045H50.2693ZM44.9749 48.6173C44.256 49.5495 43.0221 49.6287 42.2189 48.7952C41.4157 47.9609 41.3475 46.5288 42.0656 45.5966C43.5877 43.6238 44.7734 41.3484 45.5819 38.8943C46.3859 36.4527 46.8082 33.8385 46.8082 31.1745C46.8082 28.6359 46.4288 26.1506 45.7038 23.8228C44.9719 21.4755 43.8943 19.2802 42.5048 17.342C41.8158 16.3805 41.9284 14.952 42.7577 14.1523C43.5862 13.3527 44.817 13.4843 45.5061 14.4458C47.1937 16.7994 48.4981 19.4519 49.3788 22.2769C50.2655 25.1206 50.7284 28.1297 50.7284 31.1745C50.7284 34.39 50.2165 37.5521 49.2416 40.5114C48.2705 43.4583 46.832 46.2104 44.9757 48.6173H44.9749ZM12.6053 17.7512L31.9765 0.47285C32.831 -0.292111 34.0573 -0.109765 34.7172 0.881126C34.9923 1.29385 35.1249 1.78218 35.1303 2.26695V60.0829C35.1303 61.3388 34.2527 62.3573 33.1706 62.3573C32.667 62.3573 32.2072 62.1358 31.86 61.7738L12.6053 44.5986H1.95973C0.877548 44.5986 0 43.5802 0 42.3242V20.0256C0 18.7696 0.877548 17.7512 1.95973 17.7512H12.6053ZM31.2116 6.8745L15.2218 21.1366V41.2123L31.2116 55.4744V6.87361V6.8745Z" fill="#223E47"/>
</svg>
